<mxfile host="app.diagrams.net" modified="2024-01-05T16:55:59.226Z" agent="Mozilla/5.0 (Windows NT 10.0; Win64; x64) AppleWebKit/537.36 (KHTML, like Gecko) Chrome/120.0.0.0 Safari/537.36" version="22.1.17" etag="NZM3XClEtFRjH6YVvGtU" type="device">
  <diagram id="nyXEkuZVX-MlTWqrn0c5" name="Pagina-1">
    <mxGraphModel dx="3559" dy="1300" grid="1" gridSize="10" guides="1" tooltips="1" connect="1" arrows="1" fold="1" page="1" pageScale="1" pageWidth="1169" pageHeight="827" math="0" shadow="0">
      <root>
        <mxCell id="0" />
        <mxCell id="1" parent="0" />
        <mxCell id="SE221ieJVPmrSuXN3USs-1" value="«interface»&lt;br style=&quot;border-color: var(--border-color);&quot;&gt;&lt;b style=&quot;border-color: var(--border-color);&quot;&gt;&lt;font style=&quot;font-size: 20px;&quot;&gt;EmotionalSongsInterface&lt;/font&gt;&lt;/b&gt;" style="swimlane;fontStyle=0;childLayout=stackLayout;horizontal=1;startSize=50;fillColor=none;horizontalStack=0;resizeParent=1;resizeParentMax=0;resizeLast=0;collapsible=1;marginBottom=0;whiteSpace=wrap;html=1;fontFamily=Courier New;" vertex="1" parent="1">
          <mxGeometry x="-680" y="30" width="400" height="280" as="geometry" />
        </mxCell>
        <mxCell id="SE221ieJVPmrSuXN3USs-2" value="~ cercaBranoMusicale(String): List&amp;lt;Canzone&amp;gt;&lt;br&gt;~ cercaBranoMusicale(String, int): List&amp;lt;Canzone&amp;gt;&lt;br&gt;~ cercaBraniPerAutore(String): List&amp;lt;Canzone&amp;gt;&lt;br&gt;~ visualizzaEmozioni(String): ProspettoRiassuntivo&lt;br&gt;~ Registrazione(UtenteRegistrato): boolean&lt;br&gt;~ accedi(String, String): boolean&lt;br&gt;~ logOut(String): void&lt;br&gt;~ RegistraPlaylist(String, String): boolean&lt;br&gt;~ aggiungiCanzone(String, String, String): boolean&lt;br&gt;~ inserisciEmozioni(Percezione, String): boolean&lt;br&gt;~ aggiungiCompilation(List&amp;lt;Canzone&amp;gt;, String): boolean&lt;br&gt;~ cercaPlaylistPerUtente(String): List&amp;lt;Playlist&amp;gt;&lt;br&gt;~ controlloUserid(String): boolean&lt;br&gt;~ canzoniDaIdPlaylist(String): List&amp;lt;Canzone&amp;gt;&lt;br&gt;~ controllaCanzoneUtente(String, String): boolean" style="text;strokeColor=none;fillColor=none;align=left;verticalAlign=top;spacingLeft=4;spacingRight=4;overflow=hidden;rotatable=0;points=[[0,0.5],[1,0.5]];portConstraint=eastwest;whiteSpace=wrap;html=1;fontFamily=Courier New;" vertex="1" parent="SE221ieJVPmrSuXN3USs-1">
          <mxGeometry y="50" width="400" height="230" as="geometry" />
        </mxCell>
        <mxCell id="SE221ieJVPmrSuXN3USs-3" value="«enumeration»&lt;br style=&quot;border-color: var(--border-color);&quot;&gt;&lt;b style=&quot;border-color: var(--border-color);&quot;&gt;&lt;font style=&quot;border-color: var(--border-color); font-size: 20px;&quot;&gt;Emozione&lt;/font&gt;&lt;/b&gt;" style="swimlane;fontStyle=0;childLayout=stackLayout;horizontal=1;startSize=50;fillColor=none;horizontalStack=0;resizeParent=1;resizeParentMax=0;resizeLast=0;collapsible=1;marginBottom=0;whiteSpace=wrap;html=1;fontFamily=Courier New;" vertex="1" parent="1">
          <mxGeometry x="-240" y="69" width="180" height="190" as="geometry" />
        </mxCell>
        <mxCell id="SE221ieJVPmrSuXN3USs-4" value="AMAZEMENT&lt;br&gt;SOLEMNITY&lt;br&gt;TENDERNESS&lt;br&gt;NOSTALGIA&lt;br&gt;CALMNESS&lt;br&gt;POWER&lt;br&gt;JOY&lt;br&gt;TENSION&lt;br&gt;SADNESS" style="text;strokeColor=none;fillColor=none;align=left;verticalAlign=top;spacingLeft=4;spacingRight=4;overflow=hidden;rotatable=0;points=[[0,0.5],[1,0.5]];portConstraint=eastwest;whiteSpace=wrap;html=1;fontFamily=Courier New;" vertex="1" parent="SE221ieJVPmrSuXN3USs-3">
          <mxGeometry y="50" width="180" height="140" as="geometry" />
        </mxCell>
        <mxCell id="SE221ieJVPmrSuXN3USs-7" value="&lt;b style=&quot;border-color: var(--border-color);&quot;&gt;&lt;font style=&quot;border-color: var(--border-color); font-size: 20px;&quot;&gt;Percezione&lt;/font&gt;&lt;/b&gt;" style="swimlane;fontStyle=1;align=center;verticalAlign=top;childLayout=stackLayout;horizontal=1;startSize=40;horizontalStack=0;resizeParent=1;resizeParentMax=0;resizeLast=0;collapsible=1;marginBottom=0;whiteSpace=wrap;html=1;fontFamily=Courier New;" vertex="1" parent="1">
          <mxGeometry x="-20" y="100" width="380" height="260" as="geometry" />
        </mxCell>
        <mxCell id="SE221ieJVPmrSuXN3USs-8" value="- songId: String&lt;br&gt;- userId: String&lt;br&gt;- emozione: Emozione&lt;br&gt;- score: int&lt;br&gt;- note: String&lt;br&gt;" style="text;strokeColor=none;fillColor=none;align=left;verticalAlign=top;spacingLeft=4;spacingRight=4;overflow=hidden;rotatable=0;points=[[0,0.5],[1,0.5]];portConstraint=eastwest;whiteSpace=wrap;html=1;fontFamily=Courier New;" vertex="1" parent="SE221ieJVPmrSuXN3USs-7">
          <mxGeometry y="40" width="380" height="80" as="geometry" />
        </mxCell>
        <mxCell id="SE221ieJVPmrSuXN3USs-9" value="" style="line;strokeWidth=1;fillColor=none;align=left;verticalAlign=middle;spacingTop=-1;spacingLeft=3;spacingRight=3;rotatable=0;labelPosition=right;points=[];portConstraint=eastwest;strokeColor=inherit;fontFamily=Courier New;" vertex="1" parent="SE221ieJVPmrSuXN3USs-7">
          <mxGeometry y="120" width="380" height="8" as="geometry" />
        </mxCell>
        <mxCell id="SE221ieJVPmrSuXN3USs-10" value="+ Percezione(Emozione, int, String, String)&lt;br&gt;+ getSongId(): String&lt;br&gt;+ getUserId(): String&lt;br&gt;+ getEmozione(): Emozione&lt;br&gt;+ getScore(): int&lt;br&gt;+ setScore(int): void&lt;br&gt;+ getNote(): String&lt;br&gt;+ aggiungiNote(): void" style="text;strokeColor=none;fillColor=none;align=left;verticalAlign=top;spacingLeft=4;spacingRight=4;overflow=hidden;rotatable=0;points=[[0,0.5],[1,0.5]];portConstraint=eastwest;whiteSpace=wrap;html=1;fontFamily=Courier New;" vertex="1" parent="SE221ieJVPmrSuXN3USs-7">
          <mxGeometry y="128" width="380" height="132" as="geometry" />
        </mxCell>
        <mxCell id="SE221ieJVPmrSuXN3USs-11" value="&lt;b style=&quot;border-color: var(--border-color);&quot;&gt;&lt;font style=&quot;border-color: var(--border-color); font-size: 20px;&quot;&gt;Canzone&lt;/font&gt;&lt;/b&gt;" style="swimlane;fontStyle=1;align=center;verticalAlign=top;childLayout=stackLayout;horizontal=1;startSize=40;horizontalStack=0;resizeParent=1;resizeParentMax=0;resizeLast=0;collapsible=1;marginBottom=0;whiteSpace=wrap;html=1;fontFamily=Courier New;" vertex="1" parent="1">
          <mxGeometry x="-20" y="370" width="380" height="280" as="geometry" />
        </mxCell>
        <mxCell id="SE221ieJVPmrSuXN3USs-12" value="- id: String&lt;br&gt;- titolo: String&lt;br&gt;- artista: String&lt;br&gt;- anno: int&lt;br&gt;" style="text;strokeColor=none;fillColor=none;align=left;verticalAlign=top;spacingLeft=4;spacingRight=4;overflow=hidden;rotatable=0;points=[[0,0.5],[1,0.5]];portConstraint=eastwest;whiteSpace=wrap;html=1;fontFamily=Courier New;" vertex="1" parent="SE221ieJVPmrSuXN3USs-11">
          <mxGeometry y="40" width="380" height="70" as="geometry" />
        </mxCell>
        <mxCell id="SE221ieJVPmrSuXN3USs-13" value="" style="line;strokeWidth=1;fillColor=none;align=left;verticalAlign=middle;spacingTop=-1;spacingLeft=3;spacingRight=3;rotatable=0;labelPosition=right;points=[];portConstraint=eastwest;strokeColor=inherit;fontFamily=Courier New;" vertex="1" parent="SE221ieJVPmrSuXN3USs-11">
          <mxGeometry y="110" width="380" height="8" as="geometry" />
        </mxCell>
        <mxCell id="SE221ieJVPmrSuXN3USs-14" value="+ Canzone(String, String, String, int)&lt;br&gt;+ getId(): String&lt;br&gt;+ getTitolo(): String&lt;br&gt;+ setTitolo(String): void&amp;nbsp;&lt;br style=&quot;border-color: var(--border-color);&quot;&gt;+ getArtista(): String&lt;br&gt;+ setArtista(String): void&lt;br style=&quot;border-color: var(--border-color);&quot;&gt;+ getAnno(): int&lt;br&gt;+ setAnno(int): void&lt;br&gt;+ compareTo(Canzone): int&lt;br&gt;+ toString(): String" style="text;strokeColor=none;fillColor=none;align=left;verticalAlign=top;spacingLeft=4;spacingRight=4;overflow=hidden;rotatable=0;points=[[0,0.5],[1,0.5]];portConstraint=eastwest;whiteSpace=wrap;html=1;fontFamily=Courier New;" vertex="1" parent="SE221ieJVPmrSuXN3USs-11">
          <mxGeometry y="118" width="380" height="162" as="geometry" />
        </mxCell>
        <mxCell id="SE221ieJVPmrSuXN3USs-15" value="&lt;b style=&quot;border-color: var(--border-color);&quot;&gt;&lt;font style=&quot;border-color: var(--border-color); font-size: 20px;&quot;&gt;Playlist&lt;/font&gt;&lt;/b&gt;" style="swimlane;fontStyle=1;align=center;verticalAlign=top;childLayout=stackLayout;horizontal=1;startSize=40;horizontalStack=0;resizeParent=1;resizeParentMax=0;resizeLast=0;collapsible=1;marginBottom=0;whiteSpace=wrap;html=1;fontFamily=Courier New;" vertex="1" parent="1">
          <mxGeometry x="-450" y="340" width="380" height="450" as="geometry" />
        </mxCell>
        <mxCell id="SE221ieJVPmrSuXN3USs-16" value="- COUNT: long = 0&lt;br&gt;- idPlaylist: String&lt;br&gt;- idPersona: String&lt;br style=&quot;border-color: var(--border-color);&quot;&gt;- titolo: String&lt;br&gt;- listaCanzoni: TreeSet&amp;lt;String&amp;gt;" style="text;strokeColor=none;fillColor=none;align=left;verticalAlign=top;spacingLeft=4;spacingRight=4;overflow=hidden;rotatable=0;points=[[0,0.5],[1,0.5]];portConstraint=eastwest;whiteSpace=wrap;html=1;fontFamily=Courier New;" vertex="1" parent="SE221ieJVPmrSuXN3USs-15">
          <mxGeometry y="40" width="380" height="80" as="geometry" />
        </mxCell>
        <mxCell id="SE221ieJVPmrSuXN3USs-17" value="" style="line;strokeWidth=1;fillColor=none;align=left;verticalAlign=middle;spacingTop=-1;spacingLeft=3;spacingRight=3;rotatable=0;labelPosition=right;points=[];portConstraint=eastwest;strokeColor=inherit;fontFamily=Courier New;" vertex="1" parent="SE221ieJVPmrSuXN3USs-15">
          <mxGeometry y="120" width="380" height="8" as="geometry" />
        </mxCell>
        <mxCell id="SE221ieJVPmrSuXN3USs-18" value="+ Playlist(String, String)&lt;br&gt;+ Playlist(String, String, String)&lt;br&gt;+ Playlist(String, UtenteRegistrato)&lt;br style=&quot;border-color: var(--border-color);&quot;&gt;+ getIdPlaylist(): String&lt;br&gt;+ getIdPersona(): String&lt;br style=&quot;border-color: var(--border-color);&quot;&gt;+ getTitolo(): String&lt;br&gt;+ getListaCanzoni(): List&amp;lt;String&amp;gt;&lt;br&gt;+ getAlberoCanzoni(): TreeSet&amp;lt;String&amp;gt;&lt;br&gt;+ setListaCanzoni(List&amp;lt;String&amp;gt;): void&lt;br&gt;+ setListaCanzoni(TreeSet&amp;lt;String&amp;gt;): void&lt;br&gt;+ aggiungiCanzone(String): boolean&lt;br&gt;+ aggiungiCanzone(Canzone): boolean&lt;br&gt;+ rimuoviCanzone(String): void&lt;br&gt;+ rimuoviCanzone(Canzone): void&lt;br&gt;+ canzonePresente(String): boolean&lt;br&gt;+ canzonePresente(Canzone): boolean&lt;br style=&quot;border-color: var(--border-color);&quot;&gt;+ toString(): String&lt;br&gt;+ setCount(long): void&lt;br&gt;+ setCount(String): void&lt;br&gt;+ compareTo(Playlist): int&lt;br&gt;+ convertitoreIdString(long): String&lt;br&gt;" style="text;strokeColor=none;fillColor=none;align=left;verticalAlign=top;spacingLeft=4;spacingRight=4;overflow=hidden;rotatable=0;points=[[0,0.5],[1,0.5]];portConstraint=eastwest;whiteSpace=wrap;html=1;fontFamily=Courier New;" vertex="1" parent="SE221ieJVPmrSuXN3USs-15">
          <mxGeometry y="128" width="380" height="322" as="geometry" />
        </mxCell>
        <mxCell id="SE221ieJVPmrSuXN3USs-19" value="&lt;b style=&quot;border-color: var(--border-color);&quot;&gt;&lt;font style=&quot;border-color: var(--border-color); font-size: 20px;&quot;&gt;ProspettoRiassuntivo&lt;/font&gt;&lt;/b&gt;" style="swimlane;fontStyle=1;align=center;verticalAlign=top;childLayout=stackLayout;horizontal=1;startSize=40;horizontalStack=0;resizeParent=1;resizeParentMax=0;resizeLast=0;collapsible=1;marginBottom=0;whiteSpace=wrap;html=1;fontFamily=Courier New;" vertex="1" parent="1">
          <mxGeometry x="-1090" y="210" width="380" height="170" as="geometry" />
        </mxCell>
        <mxCell id="SE221ieJVPmrSuXN3USs-20" value="- medieEmozioni: float[]&lt;br&gt;- note: List&amp;lt;String&amp;gt;" style="text;strokeColor=none;fillColor=none;align=left;verticalAlign=top;spacingLeft=4;spacingRight=4;overflow=hidden;rotatable=0;points=[[0,0.5],[1,0.5]];portConstraint=eastwest;whiteSpace=wrap;html=1;fontFamily=Courier New;" vertex="1" parent="SE221ieJVPmrSuXN3USs-19">
          <mxGeometry y="40" width="380" height="40" as="geometry" />
        </mxCell>
        <mxCell id="SE221ieJVPmrSuXN3USs-21" value="" style="line;strokeWidth=1;fillColor=none;align=left;verticalAlign=middle;spacingTop=-1;spacingLeft=3;spacingRight=3;rotatable=0;labelPosition=right;points=[];portConstraint=eastwest;strokeColor=inherit;fontFamily=Courier New;" vertex="1" parent="SE221ieJVPmrSuXN3USs-19">
          <mxGeometry y="80" width="380" height="8" as="geometry" />
        </mxCell>
        <mxCell id="SE221ieJVPmrSuXN3USs-22" value="+ ProspettoRiassuntivo()&lt;br&gt;+ addCommento(String): void&lt;br&gt;+ setMedieEmozioni(float[]): void&lt;br&gt;+ getMedieEmozioni(): float[]&lt;br&gt;+ getNote(): List&amp;lt;String&amp;gt;" style="text;strokeColor=none;fillColor=none;align=left;verticalAlign=top;spacingLeft=4;spacingRight=4;overflow=hidden;rotatable=0;points=[[0,0.5],[1,0.5]];portConstraint=eastwest;whiteSpace=wrap;html=1;fontFamily=Courier New;" vertex="1" parent="SE221ieJVPmrSuXN3USs-19">
          <mxGeometry y="88" width="380" height="82" as="geometry" />
        </mxCell>
        <mxCell id="SE221ieJVPmrSuXN3USs-23" value="&lt;b style=&quot;border-color: var(--border-color);&quot;&gt;&lt;font style=&quot;border-color: var(--border-color); font-size: 20px;&quot;&gt;UtenteRegistrato&lt;/font&gt;&lt;/b&gt;" style="swimlane;fontStyle=1;align=center;verticalAlign=top;childLayout=stackLayout;horizontal=1;startSize=40;horizontalStack=0;resizeParent=1;resizeParentMax=0;resizeLast=0;collapsible=1;marginBottom=0;whiteSpace=wrap;html=1;fontFamily=Courier New;" vertex="1" parent="1">
          <mxGeometry x="-1040" y="414" width="490" height="390" as="geometry" />
        </mxCell>
        <mxCell id="SE221ieJVPmrSuXN3USs-24" value="- nome: String&lt;br&gt;- cognome: String&lt;br style=&quot;border-color: var(--border-color);&quot;&gt;- codiceFiscale: String&lt;br&gt;- indirizzoFisicp: String&lt;br&gt;- email: String&lt;br&gt;- password: String&lt;br&gt;- userId: String" style="text;strokeColor=none;fillColor=none;align=left;verticalAlign=top;spacingLeft=4;spacingRight=4;overflow=hidden;rotatable=0;points=[[0,0.5],[1,0.5]];portConstraint=eastwest;whiteSpace=wrap;html=1;fontFamily=Courier New;" vertex="1" parent="SE221ieJVPmrSuXN3USs-23">
          <mxGeometry y="40" width="490" height="110" as="geometry" />
        </mxCell>
        <mxCell id="SE221ieJVPmrSuXN3USs-25" value="" style="line;strokeWidth=1;fillColor=none;align=left;verticalAlign=middle;spacingTop=-1;spacingLeft=3;spacingRight=3;rotatable=0;labelPosition=right;points=[];portConstraint=eastwest;strokeColor=inherit;fontFamily=Courier New;" vertex="1" parent="SE221ieJVPmrSuXN3USs-23">
          <mxGeometry y="150" width="490" height="8" as="geometry" />
        </mxCell>
        <mxCell id="SE221ieJVPmrSuXN3USs-26" value="+ UtenteRegistrato(String, String, String, String, String, String)&lt;br&gt;+ getNome(): String&lt;br&gt;+ getCognome(): String&lt;br&gt;+ getCodiceFiscale(): String&lt;br&gt;+ getIndirizzoFisico(): String&lt;br style=&quot;border-color: var(--border-color);&quot;&gt;+ getEmail(): String&lt;br&gt;+ getPassword(): String&lt;br&gt;+ getUserId(): String&lt;br&gt;+ setNome(String): void&lt;br&gt;+ setCognome(String): void&lt;br&gt;+ setCodiceFiscale(String): void&lt;br style=&quot;border-color: var(--border-color);&quot;&gt;+ setIndirizzoFisico(String): void&lt;br&gt;+ setEmail(String): void&lt;br&gt;+ setPassword(String): void&lt;br&gt;+ compareTo(UtenteRegistrato): int" style="text;strokeColor=none;fillColor=none;align=left;verticalAlign=top;spacingLeft=4;spacingRight=4;overflow=hidden;rotatable=0;points=[[0,0.5],[1,0.5]];portConstraint=eastwest;whiteSpace=wrap;html=1;fontFamily=Courier New;" vertex="1" parent="SE221ieJVPmrSuXN3USs-23">
          <mxGeometry y="158" width="490" height="232" as="geometry" />
        </mxCell>
        <mxCell id="SE221ieJVPmrSuXN3USs-27" value="&lt;h1&gt;&lt;font face=&quot;Courier New&quot; style=&quot;font-size: 50px;&quot;&gt;Common&lt;/font&gt;&lt;/h1&gt;" style="shape=folder;fontStyle=1;tabWidth=80;tabHeight=30;tabPosition=left;html=1;boundedLbl=1;whiteSpace=wrap;" vertex="1" parent="1">
          <mxGeometry x="-1050" y="20" width="280" height="140" as="geometry" />
        </mxCell>
      </root>
    </mxGraphModel>
  </diagram>
</mxfile>
